<?xml version="1.0" encoding="UTF-8"?>
<svg xmlns="http://www.w3.org/2000/svg" xmlns:xlink="http://www.w3.org/1999/xlink" width="32px" height="32px" viewBox="0 0 32 32" version="1.1">
<g id="surface1">
<path style=" stroke:none;fill-rule:nonzero;fill:rgb(63.921571%,56.078434%,100%);fill-opacity:1;" d="M 16 3 C 16.828125 3 17.5 3.671875 17.5 4.5 L 17.5 27.5 C 17.5 28.328125 16.828125 29 16 29 C 15.171875 29 14.5 28.328125 14.5 27.5 L 14.5 4.5 C 14.5 3.671875 15.171875 3 16 3 Z M 16 3 "/>
<path style=" stroke:none;fill-rule:nonzero;fill:rgb(63.921571%,56.078434%,100%);fill-opacity:1;" d="M 27.257812 9.5 C 27.671875 10.21875 27.425781 11.136719 26.710938 11.550781 L 6.789062 23.050781 C 6.074219 23.464844 5.15625 23.21875 4.742188 22.5 C 4.328125 21.78125 4.574219 20.863281 5.289062 20.449219 L 25.210938 8.949219 C 25.925781 8.535156 26.84375 8.78125 27.257812 9.5 Z M 27.257812 9.5 "/>
<path style=" stroke:none;fill-rule:nonzero;fill:rgb(63.921571%,56.078434%,100%);fill-opacity:1;" d="M 27.257812 22.5 C 26.84375 23.21875 25.925781 23.464844 25.210938 23.050781 L 5.289062 11.550781 C 4.574219 11.136719 4.328125 10.21875 4.742188 9.5 C 5.15625 8.78125 6.074219 8.535156 6.789062 8.949219 L 26.710938 20.449219 C 27.425781 20.863281 27.671875 21.78125 27.257812 22.5 Z M 27.257812 22.5 "/>
</g>
</svg>
